<svg id="Layer_1" data-name="Layer 1" xmlns="http://www.w3.org/2000/svg" viewBox="0 0 144 144"><defs><style>.cls-1{fill:#498cca;}.cls-2{fill:#004876;}</style></defs><title>GLR_icons</title><path class="cls-1" d="M73.36,105.74H64.89l0-2.18a31,31,0,0,0-1.8-10c-2.56-7.2-7.42-12.87-12.68-14.81l-2-.72.63-2a116.63,116.63,0,0,0,4.64-23.92c.33-3.5.52-7,.57-10.49l4.4.06c0,3.58-.24,7.23-.58,10.84a124.69,124.69,0,0,1-4.25,22.94c5.74,2.89,10.66,9,13.39,16.63a35.88,35.88,0,0,1,2,9.22h2v2h2.2Z"/><path class="cls-1" d="M79.34,105.74H70.87v-2.42h2.21v-2h2a35.44,35.44,0,0,1,2-9.22c2.74-7.68,7.66-13.74,13.4-16.63a123.69,123.69,0,0,1-4.26-22.94c-.34-3.64-.53-7.28-.57-10.84l4.4-.05c0,3.44.23,7,.56,10.48A115.81,115.81,0,0,0,95.2,76.05l.63,2-2,.72c-5.27,1.93-10.12,7.61-12.69,14.81a31.29,31.29,0,0,0-1.8,10Z"/><path class="cls-1" d="M93,43.09H51.27V27.82H93ZM55.68,38.68H88.56V32.23H55.68Z"/><rect class="cls-1" x="53.48" y="27.82" width="37.29" height="4.4"/><rect class="cls-1" x="69.92" y="68.86" width="4.4" height="34.74"/><path class="cls-1" d="M72.12,71.52a6.63,6.63,0,1,1,6.59-6.63A6.62,6.62,0,0,1,72.12,71.52Zm0-8.86a2.23,2.23,0,1,0,2.19,2.23A2.21,2.21,0,0,0,72.12,62.66Z"/><path class="cls-2" d="M38.15,26.78a15.34,15.34,0,0,1-2.24-.16l-1.58-.24-.27-1.57A15.67,15.67,0,0,1,38.19,11.3,15.46,15.46,0,0,1,51.51,6.77L53.09,7l.27,1.57a15.69,15.69,0,0,1-4.13,13.51A15.43,15.43,0,0,1,38.15,26.78ZM49.18,11a11,11,0,0,0-7.82,3.36h0a11.2,11.2,0,0,0-3.12,8A11,11,0,0,0,46.06,19,11.23,11.23,0,0,0,49.18,11Z"/><path class="cls-2" d="M24.07,43.11l-1.38-.82a15.2,15.2,0,0,1-7.34-11.64h0a15.24,15.24,0,0,1,5.08-12.81l1.2-1.06L23,17.6a15.22,15.22,0,0,1,2.26,24.45ZM22.16,22.37a10.86,10.86,0,0,0-2.43,7.87h0a10.85,10.85,0,0,0,3.82,7.28,10.81,10.81,0,0,0-1.39-15.15Z"/><path class="cls-2" d="M17.84,66.89l-1.59-.16A15.11,15.11,0,0,1,4.7,59.3a15.33,15.33,0,0,1-.77-13.77l.64-1.47,1.6.16a15.09,15.09,0,0,1,11.55,7.44,15.31,15.31,0,0,1,.77,13.76Zm-10.43-18a10.89,10.89,0,0,0,1.1,8.18h0a10.72,10.72,0,0,0,6.5,5,10.93,10.93,0,0,0-1.1-8.18A10.65,10.65,0,0,0,7.41,48.91Z"/><path class="cls-2" d="M15.64,92.49A15,15,0,0,1,7.06,89.8h0A15.28,15.28,0,0,1,.59,77.65l0-1.59,1.49-.54a15,15,0,0,1,13.6,1.83A15.26,15.26,0,0,1,22.13,89.5l0,1.59-1.5.53A14.74,14.74,0,0,1,15.64,92.49ZM5.16,79.24a10.86,10.86,0,0,0,4.42,7h0a10.59,10.59,0,0,0,8,1.72,10.79,10.79,0,0,0-4.43-7A10.56,10.56,0,0,0,5.16,79.24Z"/><path class="cls-2" d="M24.51,116.66a15.27,15.27,0,0,1-2.51-.21h0a15.13,15.13,0,0,1-11-8.27l-.7-1.43,1.13-1.11a15,15,0,0,1,24.06,4.13l.69,1.42-1.12,1.12A15.08,15.08,0,0,1,24.51,116.66Zm-1.76-4.55a10.62,10.62,0,0,0,8-1.85,10.55,10.55,0,0,0-14.87-2.57,10.63,10.63,0,0,0,6.91,4.42Z"/><path class="cls-2" d="M42.76,134.77a15.1,15.1,0,0,1-9.47-3.36l-1.23-1,.55-1.48a15,15,0,0,1,23.54-6.5l1.23,1-.55,1.48a15.11,15.11,0,0,1-10.11,9.32h0A14.7,14.7,0,0,1,42.76,134.77Zm-5.31-5.83A10.59,10.59,0,0,0,45.54,130h0A10.72,10.72,0,0,0,52,124.91a10.56,10.56,0,0,0-8.1-1A10.73,10.73,0,0,0,37.45,128.94Z"/><path class="cls-2" d="M64,125.22A58.68,58.68,0,0,1,36,23.46l2.91,3.32a54.27,54.27,0,0,0,25.93,94.1Z"/><path class="cls-2" d="M106.09,26.78A15.43,15.43,0,0,1,95,22.09,15.69,15.69,0,0,1,90.88,8.58L91.15,7l1.58-.23a15.48,15.48,0,0,1,13.32,4.52h0a15.65,15.65,0,0,1,4.13,13.5l-.27,1.58-1.58.23A15.24,15.24,0,0,1,106.09,26.78ZM95.06,11a11.2,11.2,0,0,0,3.12,8A11,11,0,0,0,106,22.38a11.2,11.2,0,0,0-3.12-8A11,11,0,0,0,95.06,11Z"/><path class="cls-2" d="M120.17,43.12,119,42.05a15.19,15.19,0,0,1,2.27-24.45l1.38-.82,1.2,1.06a15.2,15.2,0,0,1-2.26,24.45Zm1.91-20.74a10.8,10.8,0,0,0-1.39,15.14,10.8,10.8,0,0,0,3.81-7.27h0A10.8,10.8,0,0,0,122.08,22.38Z"/><path class="cls-2" d="M126.39,66.89l-.64-1.47a15.31,15.31,0,0,1,.77-13.76,15.09,15.09,0,0,1,11.56-7.44l1.59-.16.64,1.47a15.33,15.33,0,0,1-.77,13.77h0A15.11,15.11,0,0,1,128,66.73Zm10.44-18a10.65,10.65,0,0,0-6.5,5,10.93,10.93,0,0,0-1.1,8.18,10.54,10.54,0,0,0,6.5-5h0A10.89,10.89,0,0,0,136.83,48.91Z"/><path class="cls-2" d="M128.6,92.49a14.74,14.74,0,0,1-5-.87l-1.5-.53,0-1.59a15.25,15.25,0,0,1,6.48-12.15,15,15,0,0,1,13.59-1.82l1.5.53,0,1.59a15.26,15.26,0,0,1-6.48,12.15h0A14.9,14.9,0,0,1,128.6,92.49Zm-1.92-4.58a10.55,10.55,0,0,0,8-1.72h0a10.79,10.79,0,0,0,4.43-7,10.61,10.61,0,0,0-8,1.72A10.83,10.83,0,0,0,126.68,87.91Z"/><path class="cls-2" d="M119.72,116.66a15.05,15.05,0,0,1-10.57-4.35L108,111.19l.69-1.42a15,15,0,0,1,24.06-4.12l1.13,1.11-.7,1.42a15.15,15.15,0,0,1-11,8.27h0A15.3,15.3,0,0,1,119.72,116.66Zm-6.19-6.4a10.63,10.63,0,0,0,8,1.85h0a10.68,10.68,0,0,0,6.91-4.41,10.55,10.55,0,0,0-14.87,2.56Z"/><path class="cls-2" d="M101.48,134.77a14.83,14.83,0,0,1-4-.54h0a15.12,15.12,0,0,1-10.11-9.31l-.55-1.49,1.23-1a15,15,0,0,1,13.43-2.82,15.16,15.16,0,0,1,10.11,9.31l.55,1.49-1.23,1A15,15,0,0,1,101.48,134.77Zm-9.23-9.86A10.67,10.67,0,0,0,98.69,130h0a10.61,10.61,0,0,0,8.1-1.05,10.72,10.72,0,0,0-6.45-5.08A10.53,10.53,0,0,0,92.25,124.91Z"/><path class="cls-2" d="M80.2,125.22l-.76-4.34a54.27,54.27,0,0,0,25.94-94.1l2.9-3.31A58.67,58.67,0,0,1,80.2,125.22Z"/></svg>