<svg id="Layer_1" data-name="Layer 1" xmlns="http://www.w3.org/2000/svg" viewBox="0 0 144 144"><defs><style>.cls-1{fill:#004876;}.cls-2{fill:#498cca;}</style></defs><title>GLR_icons</title><path class="cls-1" d="M142.64,26.85H128.2V22.11h9.7V13.3a8,8,0,0,0-8-7.9V.66A12.71,12.71,0,0,1,142.64,13.3Z"/><path class="cls-1" d="M110.44,142.47H13.69l0-4.74c2.65,0,33.28,0,91,0h5.46a7.94,7.94,0,0,0,7-7.83l-.07-4.09h.07V13.3a12.57,12.57,0,0,1,2.73-7.82H32.21a7.92,7.92,0,0,0-6.94,7.82V116.08H20.52V13.3A12.66,12.66,0,0,1,31.8.75l.27,0h5.6c57.75,0,88.37,0,91,0L129,5.46a7.92,7.92,0,0,0-7.07,7.84V130.56h0a12.72,12.72,0,0,1-11.28,11.9Z"/><path class="cls-1" d="M12.9,142.47h-.27A12.68,12.68,0,0,1,1.36,129.9v-7.53H102.72v7.53a7.92,7.92,0,0,0,7.07,7.84l-.28,4.73H12.9ZM6.1,127.12v2.78a7.94,7.94,0,0,0,7,7.83H100.7A12.53,12.53,0,0,1,98,129.9v-2.78Z"/><path class="cls-1" d="M142.64,26H137.9V13.3a8,8,0,0,0-16,0h-4.75a12.76,12.76,0,0,1,25.51,0Z"/><path class="cls-1" d="M110.12,142.47c-6.36,0-12.15-6-12.15-12.57v-8.32h4.75v8.32c0,4,3.59,7.83,7.4,7.83Z"/><rect class="cls-2" x="39.14" y="70.7" width="67" height="4.75"/><rect class="cls-2" x="39.14" y="85.61" width="67" height="4.75"/><rect class="cls-2" x="39.14" y="100.72" width="39.83" height="4.75"/><path class="cls-2" d="M70.89,22.33c7.45,0,12.2,3.23,12.2,8.31A7.44,7.44,0,0,1,77.4,38a8.19,8.19,0,0,1,6.83,8.4c0,5.65-4.94,9.21-12.77,9.21H55.18V22.33ZM63.58,35.62h6.83c2.47,0,4-1.33,4-3.46s-1.57-3.37-4-3.37H63.58Zm0,13.44h6.83c3.14,0,5.08-1.38,5.08-3.75s-1.94-3.61-5.08-3.61H63.58Z"/></svg>