<svg id="Layer_1" data-name="Layer 1" xmlns="http://www.w3.org/2000/svg" viewBox="0 0 144 144"><defs><style>.cls-1{fill:#888b8d;}.cls-2{fill:#004876;}</style></defs><title>GLR_icons</title><rect class="cls-1" x="62.92" y="49.34" width="48.84" height="4.9"/><path class="cls-1" d="M115.86,53.52a11.29,11.29,0,0,1-7.92-19.23A11,11,0,0,1,115.86,31h0a11.07,11.07,0,0,1,7.92,3.31,11.27,11.27,0,0,1-7.92,19.23Zm0-17.64a6.2,6.2,0,0,0-4.44,1.86,6.39,6.39,0,0,0,4.44,10.88,6.18,6.18,0,0,0,4.43-1.86,6.42,6.42,0,0,0,0-9,6.18,6.18,0,0,0-4.43-1.86Z"/><path class="cls-1" d="M115.86,71.55a11.27,11.27,0,1,1,11.19-11.27A11.25,11.25,0,0,1,115.86,71.55Zm0-17.64a6.37,6.37,0,1,0,6.28,6.37A6.34,6.34,0,0,0,115.86,53.91Z"/><path class="cls-1" d="M131.78,62.53a11.27,11.27,0,0,1,0-22.53,11.1,11.1,0,0,1,7.92,3.3,11.29,11.29,0,0,1-7.92,19.23Zm0-17.63a6.33,6.33,0,1,0,4.43,1.86A6.18,6.18,0,0,0,131.78,44.9Z"/><path class="cls-2" d="M72.1,106l-4.89-.35c.31-4.42,1.34-10.55,4.39-14.64A85.53,85.53,0,0,0,86.9,59.88l4.76,1.19A90.52,90.52,0,0,1,75.51,94C73.19,97.09,72.37,102.24,72.1,106Z"/><path class="cls-2" d="M22.62,106c-.36-5.41-1.53-9.58-3.37-12-17.49-22.72-18-44.45-18-44.67C1.27,23.63,22,2.75,47.39,2.75A46,46,0,0,1,92.94,41.88l-4.84.77a41.16,41.16,0,0,0-40.71-35C24.66,7.65,6.17,26.33,6.17,49.28c0,.2.47,20.24,17,41.71,2.47,3.31,3.92,8.24,4.35,14.69Z"/><rect class="cls-2" x="19" y="103.91" width="56.79" height="4.9"/><rect class="cls-2" x="19" y="115.05" width="56.79" height="4.9"/><rect class="cls-2" x="19" y="126.18" width="56.79" height="4.9"/><rect class="cls-2" x="26.72" y="137.32" width="41.35" height="4.9"/><rect class="cls-2" x="23.14" y="106.95" width="4.9" height="21.16"/><path class="cls-2" d="M57,75.82H37.8L40,51.32a11.8,11.8,0,1,1,14.72,0Zm-13.81-4.9h8.44l-2-22.09,1.31-.8a6.89,6.89,0,1,0-7,0l1.31.8Z"/><rect class="cls-1" x="66.54" y="51.23" width="4.9" height="16.49"/><rect class="cls-1" x="76.34" y="51.23" width="4.9" height="8.95"/></svg>