<svg id="Layer_1" data-name="Layer 1" xmlns="http://www.w3.org/2000/svg" viewBox="0 0 144 144"><defs><style>.cls-1{fill:#004876;}.cls-2{fill:#888b8d;}</style></defs><title>GLR_icons</title><path class="cls-1" d="M80.63,111.51a6.42,6.42,0,0,1-2.92-.71l-6.47-3.26-.75-.26-2.78-1,2.45-1.67a3.51,3.51,0,0,0,1.15-1.33l1.75-3.53A3.52,3.52,0,0,0,71.52,95a3.41,3.41,0,0,0-4.6,1.55l-1.75,3.53a3.51,3.51,0,0,0-.36,1.8l.2,2.7-8.28-4.18L59,99a3.43,3.43,0,0,0,1.2-1.36l5.11-10.31a3.52,3.52,0,0,0-1.54-4.69,3.36,3.36,0,0,0-2.6-.19,3.41,3.41,0,0,0-2,1.74L54,94.47a3.55,3.55,0,0,0-.35,1.78L53.86,99l-8.28-4.18,2.23-1.46A3.43,3.43,0,0,0,49,92l4.14-8.35a3.51,3.51,0,0,0-1.54-4.68,3.32,3.32,0,0,0-2.6-.2,3.45,3.45,0,0,0-2,1.75l-4.14,8.35a3.55,3.55,0,0,0-.35,1.79l.19,2.7L34,88.92l2.21-1.46a3.51,3.51,0,0,0,1.21-1.36l1.75-3.53a3.51,3.51,0,0,0-1.53-4.69A3.41,3.41,0,0,0,33,79.43L31.29,83a3.48,3.48,0,0,0-.36,1.74l.13,3-2.51-1.64A13.24,13.24,0,0,1,25,82.63l2.5-1.79a10.64,10.64,0,0,0,.9,1.09c0-.11.1-.22.15-.33l1.75-3.53A6.48,6.48,0,0,1,39,75.14a6.59,6.59,0,0,1,3.23,8l2-4A6.47,6.47,0,0,1,53,76.18a6.58,6.58,0,0,1,3.58,6.22,6.49,6.49,0,0,1,8.54-2.55A6.63,6.63,0,0,1,68,88.66l-2.2,4.42a6.61,6.61,0,0,1,2.11-1.17,6.43,6.43,0,0,1,5,.36,6.6,6.6,0,0,1,2.92,8.8l-1.76,3.54a6,6,0,0,1-.4.7l5.44,2.75a3.38,3.38,0,0,0,2.59.2,3.44,3.44,0,0,0,2-1.75,3.56,3.56,0,0,0-.37-3.72l-.7-.92.69-.93A11.16,11.16,0,0,0,84,99.87l.72-1.26,5.53,2.79a3.36,3.36,0,0,0,2.6.19,3.44,3.44,0,0,0,2-1.74,3.52,3.52,0,0,0-1.54-4.69l-5.55-2.82,1.81-3.62,11.21,5.68a3.39,3.39,0,0,0,4.59-1.56,3.5,3.5,0,0,0-1.53-4.69L92.69,82.51l.56-1.32c.11-.27.19-.53.28-.8l.55-1.72,16.06,8.13a3.33,3.33,0,0,0,2.59.19,3.41,3.41,0,0,0,2-1.75,3.5,3.5,0,0,0-1.54-4.68L88.39,68a24,24,0,0,1-3.82-.52,21.45,21.45,0,0,1-12-7.24l-7.81.87-.14.76a10.21,10.21,0,0,1-4.39,6.55,10,10,0,0,1-7.61,1.47l-2.82-.58-.3-.08-1.53-.39,4-19.54,13.38-2.79,6.64-1.29,3.74.84-.74-2.35L63.34,42.54,57.29,42,37.1,48.81l-1-2.92,20.79-7,6.71.58,13.63,1.4,2.93,9.34-8.31-1.86-6,1.17L54.51,51.9l-3,14.64,1.67.34a7,7,0,0,0,5.29-1,7.12,7.12,0,0,0,3.07-4.57l.56-3L74,57l.53.73a18,18,0,0,0,10.75,6.76,19.74,19.74,0,0,0,3.62.47l.33,0,25.41,12.85a6.61,6.61,0,0,1,2.91,8.8,6.49,6.49,0,0,1-3.8,3.3,6.36,6.36,0,0,1-5-.37l-.18-.09a6.59,6.59,0,0,1-.43,4.76,6.49,6.49,0,0,1-8.74,2.93L98,96.45a6.64,6.64,0,0,1-.41,4.76,6.56,6.56,0,0,1-3.79,3.3,6.39,6.39,0,0,1-5-.37l-2-1a6.62,6.62,0,0,1-.43,4.74,6.51,6.51,0,0,1-5.82,3.63Zm-41-23.18.09,0c0-.13.08-.25.13-.37A3.62,3.62,0,0,1,39.66,88.33Z"/><path class="cls-2" d="M113.57,80.74,88.39,68,88,68l-.24,0-1-.11h-.1l-.88-.14-.2,0-1-.2-1-.23-.6-.18-.41-.12a3.34,3.34,0,0,1-.41-.14l-.2-.07-.32-.11-.9-.34L80.1,66,79,65.44c-.2-.1-.45-.23-.69-.38l-.1,0-.68-.41a.66.66,0,0,1-.18-.12,31.91,31.91,0,0,1-4.78-4.19l-7.81.83-.14.75a10.21,10.21,0,0,1-4.39,6.55,10,10,0,0,1-7.61,1.47l-2.82-.58-.3-.08-1.53-.39,4-19.52L53,49.07l18.76-3.88,22.4,5,15-5,1,2.91L94.33,53.38l-22.6-5L54.51,51.9l-3,14.64,1.67.34a7,7,0,0,0,5.29-1,7.12,7.12,0,0,0,3.07-4.57l.56-3,11.6-1.23.53.57A34.09,34.09,0,0,0,79,61.93l.19.12.47.29.13.07.57.31.2.1.81.38.52.23,1.28.47.3.1.54.17.26.07.11,0,.83.21.89.17L86,66.19l.25-1.52c.27,0,.53.09.81.12h.06l.83.09.24,0c.22,0,.44,0,.66,0h.34l.3.16,24.33,12.3,6.1-2,1,2.92Z"/><path class="cls-2" d="M68.22,108.24a6.33,6.33,0,0,1-2.9-.7,6.61,6.61,0,0,1-2.91-8.8l1.75-3.53a6.49,6.49,0,0,1,8.74-2.94h0a6.6,6.6,0,0,1,2.92,8.8l-1.76,3.54a6.51,6.51,0,0,1-5.84,3.63ZM70,94.65a3.35,3.35,0,0,0-1.08.18,3.42,3.42,0,0,0-2,1.74l-1.75,3.53a3.51,3.51,0,0,0,1.54,4.7,3.33,3.33,0,0,0,2.59.19,3.44,3.44,0,0,0,2-1.75l1.75-3.53A3.52,3.52,0,0,0,71.52,95h0A3.28,3.28,0,0,0,70,94.65Z"/><path class="cls-2" d="M34.35,91.1a6.34,6.34,0,0,1-2.91-.7,6.58,6.58,0,0,1-2.91-8.8l1.75-3.53A6.48,6.48,0,0,1,39,75.14h0a6.59,6.59,0,0,1,2.9,8.79l-1.75,3.53a6.52,6.52,0,0,1-5.83,3.64Zm1.76-13.59A3.45,3.45,0,0,0,33,79.43L31.29,83a3.52,3.52,0,0,0,1.53,4.7,3.34,3.34,0,0,0,2.61.18,3.42,3.42,0,0,0,2-1.74l1.75-3.53a3.51,3.51,0,0,0-1.53-4.69A3.45,3.45,0,0,0,36.11,77.51Z"/><path class="cls-2" d="M57.08,102.6a6.37,6.37,0,0,1-2.91-.7,6.58,6.58,0,0,1-2.9-8.8l5.1-10.31a6.5,6.5,0,0,1,8.75-2.94h0A6.62,6.62,0,0,1,68,88.66L62.91,99a6.51,6.51,0,0,1-5.83,3.63ZM62.2,82.23a3.29,3.29,0,0,0-1.07.18,3.41,3.41,0,0,0-2,1.74L54,94.47a3.52,3.52,0,0,0,1.54,4.69,3.33,3.33,0,0,0,2.59.19,3.44,3.44,0,0,0,2-1.75l5.11-10.31a3.52,3.52,0,0,0-1.54-4.69A3.42,3.42,0,0,0,62.2,82.23Z"/><path class="cls-2" d="M45.94,97a6.41,6.41,0,0,1-2.92-.7,6.6,6.6,0,0,1-2.9-8.79l4.14-8.35A6.47,6.47,0,0,1,53,76.18,6.61,6.61,0,0,1,55.91,85l-4.14,8.35A6.47,6.47,0,0,1,48,96.63,6.55,6.55,0,0,1,45.94,97Zm4.14-18.4a3.57,3.57,0,0,0-1.07.17,3.45,3.45,0,0,0-2,1.75l-4.14,8.35a3.52,3.52,0,0,0,1.54,4.69,3.36,3.36,0,0,0,2.6.19A3.42,3.42,0,0,0,49,92l4.14-8.35a3.51,3.51,0,0,0-1.54-4.68h0A3.32,3.32,0,0,0,50.08,78.56Z"/><path class="cls-2" d="M121.87,86.07,107.73,43.14l22-9.18,14.15,42.95ZM111.54,44.88,123.76,82l16.33-6.8L127.88,38.08Z"/><path class="cls-1" d="M24.48,90,.81,81.3l16-48.48,23.67,8.71ZM4.66,79.43,22.56,86l14-42.63L18.7,36.81Z"/><rect class="cls-1" x="15.89" y="73.29" width="3.08" height="5.45" transform="translate(-60.18 68.28) rotate(-71.39)"/><rect class="cls-2" x="126.06" y="71.41" width="4.68" height="3.08" transform="matrix(0.95, -0.31, 0.31, 0.95, -16.35, 43.69)"/></svg>