<svg id="Layer_1" data-name="Layer 1" xmlns="http://www.w3.org/2000/svg" viewBox="0 0 144 144"><defs><style>.cls-1{fill:#004876;}.cls-2{fill:#888b8d;}</style></defs><title>GLR_icons</title><rect class="cls-1" y="136.7" width="143.42" height="4.43"/><path class="cls-1" d="M137.91,132h-4.43v-6.83a1.17,1.17,0,0,0-1.16-1.19H83.37a1.17,1.17,0,0,0-1.16,1.19V132H77.78v-6.83a5.61,5.61,0,0,1,5.59-5.62h48.95a5.61,5.61,0,0,1,5.59,5.62Z"/><path class="cls-1" d="M128.38,124H87.31a5.62,5.62,0,0,1-5.59-5.63v-5.12a5.62,5.62,0,0,1,5.59-5.63h41.07a5.62,5.62,0,0,1,5.59,5.63v5.12A5.62,5.62,0,0,1,128.38,124ZM87.31,112.06a1.17,1.17,0,0,0-1.16,1.19v5.12a1.18,1.18,0,0,0,1.16,1.2h41.07a1.18,1.18,0,0,0,1.16-1.2v-5.12a1.17,1.17,0,0,0-1.16-1.19Z"/><path class="cls-2" d="M101.52,82.88h0a5.13,5.13,0,0,1-3.67-1.54L91.2,74.63a5.25,5.25,0,0,1,0-7.36l27.63-27.93a5.16,5.16,0,0,1,3.67-1.53h0a5.14,5.14,0,0,1,3.68,1.53l6.64,6.72a5.25,5.25,0,0,1,0,7.36L105.19,81.34A5.13,5.13,0,0,1,101.52,82.88Zm21-40.64h0a.72.72,0,0,0-.52.22L94.35,70.38a.8.8,0,0,0,0,1.13L101,78.23a.72.72,0,0,0,.52.22h0a.7.7,0,0,0,.52-.23L129.67,50.3a.79.79,0,0,0,0-1.12L123,42.46A.76.76,0,0,0,122.5,42.24Z"/><path class="cls-2" d="M65.49,46.47h0a5.14,5.14,0,0,1-3.67-1.53l-6.64-6.72a5.25,5.25,0,0,1,0-7.36L82.8,2.94A5.17,5.17,0,0,1,86.48,1.4h0a5.11,5.11,0,0,1,3.67,1.54L96.8,9.65a5.25,5.25,0,0,1,0,7.36L69.17,44.94A5.18,5.18,0,0,1,65.49,46.47Zm21-40.64a.72.72,0,0,0-.53.23L58.33,34a.79.79,0,0,0,0,1.12L65,41.82a.74.74,0,0,0,.52.22h0a.74.74,0,0,0,.53-.22L93.65,13.89a.79.79,0,0,0,0-1.12h0L87,6.05a.72.72,0,0,0-.52-.22Z"/><rect class="cls-2" x="80.64" y="34.73" width="4.43" height="37.33" transform="translate(-13.6 73.72) rotate(-44.7)"/><rect class="cls-2" x="102.92" y="12.21" width="4.43" height="37.33" transform="translate(8.68 82.88) rotate(-44.7)"/><path class="cls-2" d="M30.54,117.86,19.08,106.27,78.68,46,90.15,57.62Zm-5.23-11.59,5.23,5.29L83.92,57.62l-5.24-5.29Z"/><path class="cls-2" d="M23.91,128.75,8.3,113,20.12,101,35.73,116.8ZM14.53,113l9.38,9.48,5.59-5.65-9.38-9.47Z"/><rect class="cls-2" x="69.11" y="59.4" width="4.43" height="11.31" transform="translate(-25.13 68.98) rotate(-44.7)"/><rect class="cls-2" x="60.75" y="67.84" width="4.43" height="11.31" transform="translate(-33.49 65.55) rotate(-44.7)"/><rect class="cls-2" x="91.32" y="34.76" width="4.43" height="15.7" transform="translate(-2.92 78.12) rotate(-44.7)"/><rect class="cls-1" x="131.19" y="84.19" width="12.81" height="4.43"/><rect class="cls-1" x="128.24" y="71.07" width="12.85" height="4.43" transform="translate(-18.25 84.39) rotate(-32.71)"/><rect class="cls-1" x="132.45" y="93.11" width="4.43" height="12.85" transform="translate(-21.87 159.03) rotate(-57.28)"/><rect class="cls-1" x="73.64" y="84.19" width="12.8" height="4.43"/><rect class="cls-1" x="76.56" y="97.32" width="12.85" height="4.43" transform="translate(-40.63 60.63) rotate(-32.71)"/></svg>