<svg id="Layer_1" data-name="Layer 1" xmlns="http://www.w3.org/2000/svg" viewBox="0 0 144 144"><defs><style>.cls-1{fill:#004876;}.cls-2{fill:#498cca;}</style></defs><title>GLR_icons</title><rect class="cls-1" x="102.26" y="108.83" width="5.1" height="35.17"/><rect class="cls-1" x="35.67" y="108.83" width="5.1" height="35.17"/><path class="cls-1" d="M109.32,111.62h0a17.4,17.4,0,0,1-12.4-5.16,14.64,14.64,0,0,1,0-20.63,12.11,12.11,0,0,1,17.17,0,10.3,10.3,0,0,1,0,14.5l-3.62-3.6a5.19,5.19,0,0,0,0-7.3,7,7,0,0,0-9.94,0,9.55,9.55,0,0,0,0,13.43,12.4,12.4,0,0,0,17.57,0,16.34,16.34,0,0,0,0-23c-3.79-3.81-8.36-6-12.88-6.06-6.43-.14-18.26,0-18.38,0l-.07-5.1c.13,0,12-.14,18.56,0,5.84.12,11.66,2.81,16.39,7.56a21.44,21.44,0,0,1,0,30.2A17.42,17.42,0,0,1,109.32,111.62Z"/><path class="cls-1" d="M33.72,111.62a17.44,17.44,0,0,1-12.41-5.16,21.46,21.46,0,0,1,0-30.21C26,71.51,31.86,68.82,37.7,68.7c6.53-.15,48,0,49.74,0l0,5.1c-.43,0-43.14-.14-49.61,0-4.51.1-9.09,2.25-12.88,6.06a16.34,16.34,0,0,0,0,23,12.35,12.35,0,0,0,8.79,3.65h0a12.35,12.35,0,0,0,8.78-3.65,9.55,9.55,0,0,0,0-13.43,7,7,0,0,0-9.94,0,5.19,5.19,0,0,0,0,7.3l-3.62,3.6a10.3,10.3,0,0,1,0-14.5,12.12,12.12,0,0,1,17.18,0,14.65,14.65,0,0,1,0,20.63,17.42,17.42,0,0,1-12.4,5.16Z"/><rect class="cls-1" x="44.45" y="86.74" width="53.7" height="5.1"/><rect class="cls-1" x="50.58" y="114.19" width="5.1" height="29.81"/><rect class="cls-1" x="69.28" y="104.14" width="5.1" height="39.86"/><rect class="cls-1" x="87.99" y="114.19" width="5.1" height="29.81"/><path class="cls-2" d="M87.67,55.5a2.64,2.64,0,0,1-1.19-.29l-15-7.91-15,7.91a2.55,2.55,0,0,1-3.71-2.69L55.7,35.77,43.59,23.9A2.56,2.56,0,0,1,45,19.55l16.74-2.44L69.22,1.88a2.55,2.55,0,0,1,4.58,0l7.49,15.24L98,19.55a2.56,2.56,0,0,1,1.41,4.35L87.33,35.77l2.86,16.75a2.55,2.55,0,0,1-2.52,3ZM71.51,41.87a2.56,2.56,0,0,1,1.2.29l11.58,6.11-2.22-13a2.53,2.53,0,0,1,.73-2.25l9.39-9.2L79.22,22a2.58,2.58,0,0,1-1.92-1.4L71.51,8.79,65.73,20.57A2.58,2.58,0,0,1,63.81,22l-13,1.89,9.39,9.2A2.53,2.53,0,0,1,61,35.31l-2.21,13,11.57-6.11A2.55,2.55,0,0,1,71.51,41.87Z"/></svg>