<svg id="Layer_1" data-name="Layer 1" xmlns="http://www.w3.org/2000/svg" viewBox="0 0 144 144"><defs><style>.cls-1{fill:#888b8d;}.cls-2{fill:#004876;}</style></defs><title>GLR_icons</title><path class="cls-1" d="M120.8,126l-3-3.22c1-1,2.07-2,3.06-3.05l3.21,3C123,123.89,121.91,125,120.8,126Zm-98-.09c-1.11-1-2.2-2.14-3.24-3.25l3.22-3c1,1,2,2.07,3.05,3Zm104.26-6.59-3.41-2.82c.92-1.1,1.81-2.24,2.65-3.4l3.57,2.6C129,116.94,128.07,118.16,127.1,119.33Zm-110.54-.11c-1-1.18-1.92-2.4-2.81-3.63L17.33,113c.84,1.15,1.72,2.3,2.64,3.41Zm115.94-7.31-3.74-2.37c.78-1.21,1.51-2.46,2.2-3.71l3.87,2.13C134.1,109.29,133.32,110.62,132.5,111.91Zm-121.32-.12c-.81-1.28-1.6-2.61-2.33-4l3.88-2.12c.69,1.26,1.42,2.51,2.18,3.72Zm125.73-7.92-4-1.88c.61-1.29,1.18-2.62,1.7-4l4.12,1.62C138.17,101.07,137.56,102.49,136.91,103.87ZM6.77,103.73c-.64-1.38-1.25-2.8-1.8-4.22L9.09,97.9c.52,1.33,1.09,2.67,1.69,4Zm133.5-8.41L136.06,94c.44-1.36.83-2.76,1.18-4.14l4.29,1.08C141.16,92.38,140.74,93.87,140.27,95.32ZM3.43,95.17c-.46-1.45-.88-2.94-1.25-4.42l4.29-1.06c.35,1.38.74,2.78,1.18,4.14Zm139.08-8.75-4.35-.8c.26-1.41.48-2.84.65-4.26l4.38.53C143,83.39,142.78,84.92,142.51,86.42ZM1.21,86.26c-.27-1.49-.5-3-.67-4.54l4.39-.51c.16,1.42.38,2.86.63,4.26Zm142.39-9-4.42-.24c.07-1.28.11-2.58.11-3.86v-.46l4.42,0v.49C143.71,74.57,143.67,76,143.6,77.31ZM.14,77.14c-.06-1.3-.1-2.62-.1-3.93v-.66l4.42,0v.61c0,1.24,0,2.48.1,3.71Zm139-8.7c-.1-1.43-.25-2.87-.44-4.28l4.38-.59c.21,1.51.36,3,.47,4.57ZM4.63,68.28.22,68c.11-1.52.27-3.06.48-4.57l4.38.6C4.89,65.41,4.74,66.86,4.63,68.28ZM138,59.9c-.28-1.41-.61-2.82-1-4.2l4.27-1.13c.39,1.47.74,3,1,4.47ZM5.79,59.74l-4.33-.86c.3-1.5.65-3,1-4.48l4.27,1.15C6.4,56.93,6.07,58.34,5.79,59.74Zm130-8.16c-.46-1.36-1-2.72-1.5-4l4.09-1.67c.58,1.42,1.12,2.87,1.6,4.31ZM8,51.42,3.83,50c.49-1.44,1-2.89,1.61-4.3l4.09,1.68C9,48.71,8.48,50.07,8,51.42Zm124.5-7.83c-.63-1.29-1.3-2.57-2-3.82l3.85-2.18c.75,1.33,1.47,2.7,2.14,4.07ZM11.29,43.46l-4-1.94C8,40.16,8.71,38.8,9.46,37.47l3.84,2.18C12.59,40.9,11.92,42.18,11.29,43.46Zm117-7.38c-.79-1.2-1.62-2.39-2.48-3.53l3.54-2.65c.92,1.22,1.8,2.48,2.64,3.76ZM15.55,36l-3.69-2.43c.83-1.26,1.71-2.53,2.63-3.75L18,32.45C17.16,33.6,16.33,34.79,15.55,36Zm107.55-6.8c-.92-1.08-1.9-2.16-2.9-3.19l3.18-3.07c1.06,1.09,2.1,2.24,3.08,3.39ZM20.73,29.09l-3.36-2.87c1-1.16,2-2.3,3.09-3.39l3.17,3.08C22.63,26.93,21.66,28,20.73,29.09ZM117.11,23c-1.07-1-2.17-1.91-3.28-2.8l2.76-3.45c1.18.94,2.36,2,3.49,3Zm-90.38-.08-3-3.28c1.14-1,2.31-2,3.5-3L30,20.12C28.9,21,27.79,22,26.73,22.91Zm83.65-5.3c-1.17-.82-2.38-1.61-3.61-2.36l2.3-3.77c1.31.79,2.6,1.64,3.84,2.51Zm-76.91-.07-2.53-3.63c1.25-.87,2.55-1.71,3.85-2.5l2.29,3.78C35.86,15.93,34.64,16.72,33.47,17.54ZM103,13.13c-1.28-.67-2.58-1.3-3.88-1.87l1.8-4c1.38.61,2.77,1.28,4.13,2Zm-62.19-.06-2-3.92c1.34-.7,2.74-1.37,4.14-2l1.79,4C43.41,11.78,42.11,12.41,40.84,13.07ZM95.17,9.63c-1.34-.49-2.71-1-4.09-1.36L92.34,4c1.47.44,2.94.93,4.36,1.46ZM48.73,9.58,47.21,5.43c1.44-.53,2.91-1,4.36-1.45l1.26,4.24C51.46,8.63,50.08,9.08,48.73,9.58ZM86.92,7.17c-1.4-.31-2.82-.59-4.23-.82L83.39,2c1.51.24,3,.54,4.51.88ZM57,7.14,56,2.83c1.49-.34,3-.63,4.51-.87l.69,4.36C59.82,6.55,58.4,6.82,57,7.14ZM78.41,5.8c-1.41-.14-2.86-.23-4.3-.28l.15-4.42c1.53,0,3.07.15,4.58.3Zm-12.91,0-.42-4.4c1.52-.14,3.06-.24,4.59-.28l.13,4.41C68.37,5.56,66.92,5.65,65.5,5.78Z"/><path class="cls-2" d="M81,82.27c-3.54-7.79.72-14.85,4.83-21.68,3-4.93,6.05-10,5.85-15.11C91.31,36.76,84,29.35,77.21,26.81a25.93,25.93,0,0,0-20.13,1.08l-1.81-3.25a29.43,29.43,0,0,1,23.25-1.32c7.87,3,16.45,11.69,16.87,22,.25,6.2-3.12,11.79-6.38,17.19-3.78,6.27-7.36,12.2-4.63,18.21Z"/><path class="cls-2" d="M97.77,90.47a17.86,17.86,0,0,1-4.29-.58c-7-1.73-11.81-5.27-14.4-10.51-5-10.19.46-23,.69-23.55l3.42,1.49c0,.11-5,11.8-.76,20.43,2.08,4.2,6.1,7.07,11.95,8.52,2.45.61,5.62,1,6.78-.92,1.31-2.12.09-6.33-1-7.62C94.36,71,94.7,64.46,97.61,61c2.62-3.1,7-3.61,10.93-1.26,2.21,1.33,3.83,4,5.39,6.63,1.86,3.08,3.77,6.27,6.1,6.27v3.72c-4.43,0-7-4.29-9.29-8.08-1.33-2.21-2.7-4.49-4.12-5.34-2.36-1.42-4.72-1.24-6.17.47-1.89,2.23-1.84,6.77,2.53,11.88,1.72,2,3.77,8.09,1.35,12C103.36,88.88,101.46,90.47,97.77,90.47Z"/><polygon class="cls-2" points="52.26 63.45 48.61 53.84 52.1 52.52 54.28 58.27 65.59 52.61 67.25 55.95 52.26 63.45"/><path class="cls-2" d="M57.74,50.6a30.83,30.83,0,0,0-.69-3.69L46.71,49.2,39.93,39.1,42,38.21c.09,0,9.33-4,16.09-6.79,3.57-1.46,6.74-1.56,9.42-.3A10.39,10.39,0,0,1,72.61,37L69.06,38.1a6.68,6.68,0,0,0-3.18-3.62c-1.69-.79-3.84-.65-6.39.39-4.8,2-10.85,4.54-14,5.88L48.38,45l11.29-2.49.5,1.65a38.51,38.51,0,0,1,1.27,6Z"/><path class="cls-2" d="M51.41,79.66c0-.87-.42-8.65,2.11-12.49a103.86,103.86,0,0,1,10-12.77c2.77-3.11,4.59-5.17,4.93-7.16l3.67.62c-.51,3-2.74,5.55-5.82,9a100.39,100.39,0,0,0-9.67,12.34c-1.57,2.39-1.61,8.34-1.5,10.24Z"/><path class="cls-2" d="M106.81,142.59H81.59l6-15.84,7,2.71a5.17,5.17,0,0,0-.4-2.63c-.76-1.69-2.54-3-5.31-3.87-7.85-2.51-10.1-8.13-12.08-13.1-1.07-2.67-2.07-5.19-3.87-6.85-1.47-1.35-11-9.94-11.14-10l2.48-2.77c.4.35,9.69,8.69,11.18,10.06,2.43,2.24,3.64,5.27,4.81,8.21,1.84,4.61,3.57,9,9.76,10.93,3.84,1.23,6.4,3.23,7.6,6a9.67,9.67,0,0,1-.05,7.37l-.74,1.58-7.11-2.75L87,138.86h16.54l2.82-21.71c-5-2.32-8.16-5.74-9.55-10.18-3.09-9.86,4.09-21,4.39-21.5l3.12,2c-.06.1-6.52,10.19-3.95,18.37,1.16,3.7,4.1,6.53,8.72,8.4l1.33.54Z"/><polygon class="cls-2" points="63.02 94.57 41.05 89.42 39.05 93 23.04 89.4 28.45 77.05 55.67 76.95 55.68 80.67 30.89 80.77 28.27 86.76 37.16 88.75 39.17 85.15 61.39 90.37 65.89 83.83 68.96 85.95 63.02 94.57"/><path class="cls-2" d="M69.41,142.59H43.47l7.69-14.74,7,1.46.48-4.25c-2.08-2.18-8-9.19-6.66-17.06,1-5.91,5.82-10.77,14.29-14.45L67.76,97c-7.24,3.15-11.31,7.07-12.1,11.66C54.4,116,61.79,122.94,61.87,123l.68.64L61.42,133.8l-8.26-1.73-3.55,6.79H67l6.4-13.65-4-.33.64-7,7.35-6.87,2.54,2.72-6.31,5.9-.16,1.81,5.61.46Z"/><path class="cls-2" d="M37.86,77.46c-.21-1.19-3.4-8.19-6.54-14.64H25.74L22.54,47l14.17,1L49.27,65.87,46.22,68,34.68,51.59,27.16,51l1.63,8.07h4.85l.52,1c4.92,10,7.42,15.83,7.42,17.17H37.85A.86.86,0,0,0,37.86,77.46Z"/></svg>