<svg id="Layer_1" data-name="Layer 1" xmlns="http://www.w3.org/2000/svg" viewBox="0 0 144 144"><defs><style>.cls-1{fill:#004876;stroke:#fff;stroke-width:0.67px;}.cls-2{fill:#498cca;}</style></defs><title>GLR_icons</title><path class="cls-1" d="M141.26,37.67c0-6.06-.18-6.14-6.13-7.15-2.59-.44-6.7-.68-7.34-2.19-1.74-4.12-5-3.93-8-4.11a114.83,114.83,0,0,0-31.88,2.25l-.15,6.14a97.67,97.67,0,0,1,29.62-2.69c3,.18,4.12,1.19,4.1,4.42-.15,22.25-.1,44.51,0,66.76,0,2.63-.23,4.2-3.59,4.28a109.9,109.9,0,0,0-31.95,5.19l-.28,11.5c3.6-.5,7.18-1,10.79-1.31a134.24,134.24,0,0,1,38.17,3c5.73,1.24,6.67.32,6.67-5.56q0-20.23,0-40.48Zm-5.9,75.14v4.1l-38.93-3.07c3.08-.56,6.71-1.44,10.39-1.84a148.66,148.66,0,0,1,15.34-1c3.91,0,5.15-1.59,5.13-5.36-.1-21.86-.05-43.73-.05-65.59V35.52a6.37,6.37,0,0,1,1.43-.26c8.11,1.6,6.63.29,6.66,7.51C135.4,66.12,135.36,89.47,135.36,112.81Z"/><path class="cls-1" d="M56.43,110.57a109.94,109.94,0,0,0-23.59-4.75,39.39,39.39,0,0,0-7.25-.44c-3.74.34-4.46-1.27-4.44-4.68q.21-33,0-66c0-3.55,1.07-4.72,4.49-4.88a100.35,100.35,0,0,1,28.92,2.69l-.15-6.09a107.33,107.33,0,0,0-32-2.31c-2.07.16-5.39.53-5.9,1.75-2,4.82-6.31,4.05-9.85,4.61-3.89.61-5.62,2.06-5.6,6.22.12,27.25.05,54.5.07,81.76,0,5.41,1.31,6.48,6.69,5.29a138.09,138.09,0,0,1,48.87-2ZM7.71,116.89V36.49l7.23-1.56c.14,1.8.36,3.33.36,4.86q0,32.39,0,64.78c0,6.12.15,6,6.42,6.46,7.39.5,14.75,1.42,22.11,2.22a4.39,4.39,0,0,1,1.67.6Z"/><path class="cls-2" d="M71.19,73.56a2.09,2.09,0,0,0,2.09-2.09V33.75a2.1,2.1,0,0,0-4.19,0V71.47A2.09,2.09,0,0,0,71.19,73.56Z"/><path class="cls-2" d="M92.14,81.94H83.76V21.18a2.07,2.07,0,0,0-.49-1.34L72.8,7.27a3.86,3.86,0,0,0-1.61-.75,3.66,3.66,0,0,0-1.61.75L59.1,19.84a2.11,2.11,0,0,0-.48,1.34V81.94H50.23C44,81.94,44,90.75,44,94.52a3.27,3.27,0,0,0,2.51,3.41,3.71,3.71,0,0,0,.88.1c2.77,0,6.29-2.65,8.23-5.54,2.3.21,7.24,1,7.24,4.12a25.17,25.17,0,0,1-.82,5.2,41.31,41.31,0,0,0-1.28,9.47,21.48,21.48,0,0,0,1.72,8c.48,1.28.89,2.38.64,2.8-1.46,2.48-2.36,4.33-2.36,5.92,0,2.41,3.25,5.15,9.6,8.17a2.23,2.23,0,0,0,.88.21,2.17,2.17,0,0,0,.89-.2c6.36-3,9.58-5.77,9.58-8.18,0-1.59-.9-3.44-2.36-5.92-.25-.42.17-1.52.65-2.8a21.7,21.7,0,0,0,1.71-8,41.35,41.35,0,0,0-1.27-9.47,25.17,25.17,0,0,1-.82-5.2c0-3.13,4.93-3.92,7.23-4.12C88.74,95.38,92.26,98,95,98a3.6,3.6,0,0,0,.88-.1,3.26,3.26,0,0,0,2.51-3.41C98.42,90.75,98.42,81.94,92.14,81.94Zm-29.33-60,8.38-10.06,8.38,10.06v60H76.24l-3.57-3.57a2.09,2.09,0,0,0-3,0l-3.58,3.57H62.81ZM71.19,132c-2.89-1.46-5.65-3.28-6.26-4.15a14.59,14.59,0,0,1,1.75-3.59,2.67,2.67,0,0,0,.2-.42l.11,0h8.39a.45.45,0,0,0,.11,0c.07.15.12.29.2.43a15.32,15.32,0,0,1,1.76,3.59C76.83,128.72,74.12,130.51,71.19,132ZM65,109.18a43.72,43.72,0,0,1,1-6.28H76.33a43.66,43.66,0,0,1,1,6.28Zm12.31,4.19A21.22,21.22,0,0,1,76,117.84c-.23.6-.45,1.21-.63,1.82H67c-.18-.61-.41-1.22-.63-1.82a20.63,20.63,0,0,1-1.29-4.47Zm12.51-24s0,0,0,0A2.09,2.09,0,0,0,88,88.23c-4.67,0-12.57,1.77-12.57,8.38a15.07,15.07,0,0,0,.16,2.1h-8.7a16.77,16.77,0,0,0,.16-2.1c0-6.61-7.91-8.38-12.58-8.38a2.08,2.08,0,0,0-1.82,1.12s0,0-.05,0a10.35,10.35,0,0,1-4.4,4.22c.07-5,.77-7.48,2.08-7.48H67a2.12,2.12,0,0,0,1.48-.61l2.71-2.71,2.71,2.71a2.09,2.09,0,0,0,1.48.61H92.14c1.31,0,2,2.5,2.09,7.48A10.37,10.37,0,0,1,89.82,89.39Z"/></svg>