<svg id="Layer_1" data-name="Layer 1" xmlns="http://www.w3.org/2000/svg" viewBox="0 0 144 144"><defs><style>.cls-1{fill:#fff;}.cls-2{fill:#91c7d1;}</style></defs><title>GLR_icons</title><path class="cls-1" d="M72.1,142.51l-.44-.11C46.16,135.69,31,121.08,22.76,110,13.83,98,11,87.66,10.85,87.23L10.79,87,10.58.85H133.21L133.42,87l-.06.23c-.12.43-3,10.75-11.92,22.77-8.23,11.08-23.4,25.69-48.9,32.4Zm-57.85-56a74.27,74.27,0,0,0,11.38,21.53c7.85,10.52,22.28,24.39,46.47,30.87,24.2-6.48,38.62-20.35,46.48-30.87A74.61,74.61,0,0,0,130,86.53l-.2-82.22H14.05Z"/><path class="cls-1" d="M72.1,142.51l-.44-.11C46.16,135.69,31,121.08,22.76,110,13.83,98,11,87.66,10.85,87.23L10.79,87,10.58.85H133.21L133.42,87l-.06.23c-.12.43-3,10.75-11.92,22.77-8.23,11.08-23.4,25.69-48.9,32.4Zm-57.85-56a74.27,74.27,0,0,0,11.38,21.53c7.85,10.52,22.28,24.39,46.47,30.87,24.2-6.48,38.62-20.35,46.48-30.87A74.61,74.61,0,0,0,130,86.53l-.2-82.22H14.05Z"/><path class="cls-2" d="M112.94,52.94h0L98.82,22.82a1.81,1.81,0,0,0-1.63-1H73.39V18.07H69.8v3.71H46a1.8,1.8,0,0,0-1.63,1L30.18,52.94h0a1.77,1.77,0,0,0-.18.76c0,7.7,6.86,13.51,16,13.51s16-5.81,16-13.51a1.76,1.76,0,0,0-.17-.76h0L48.85,25.38H69.8V81h3.59V25.38h21l-13,27.56h0a1.77,1.77,0,0,0-.18.76c0,7.7,6.86,13.51,16,13.51s16-5.81,16-13.51A1.76,1.76,0,0,0,112.94,52.94ZM46,27.8,57.32,51.9H34.64Zm0,35.82c-6.29,0-11.2-3.39-12.19-8.12H58.16C57.17,60.23,52.26,63.62,46,63.62ZM108.49,51.9H85.81L97.18,27.8ZM97.15,63.62C90.86,63.62,86,60.23,85,55.5h24.37C108.34,60.23,103.43,63.62,97.15,63.62Z"/><path class="cls-1" d="M126.28,8.88H17.53L17.72,85v.22l.06.22c.1.38,2.64,9.54,10.56,20.19,7.29,9.81,20.73,22.75,43.32,28.7l.43.11.43-.11c22.59-6,36-18.89,43.33-28.7C123.77,95,126.3,85.85,126.41,85.47l.06-.22ZM25.75,95.39a267.94,267.94,0,0,1,92.65,0c-.83,1.48-1.77,3.07-2.86,4.71a268,268,0,0,0-87,0C27.5,98.44,26.56,96.86,25.75,95.39Zm5,7.78a264.15,264.15,0,0,1,82.68,0c-1.1,1.51-2.32,3-3.66,4.59a273.93,273.93,0,0,0-75.34,0c-1.2-1.39-2.28-2.74-3.25-4Zm6.49,7.67a270,270,0,0,1,69.74,0c-1.45,1.5-3,3-4.72,4.45a276.1,276.1,0,0,0-60.28,0C40.22,113.81,38.64,112.32,37.2,110.84Zm61.27,7.47a72.59,72.59,0,0,1-6.56,4.38,313.63,313.63,0,0,0-39.62,0,74.65,74.65,0,0,1-6.59-4.39A271.26,271.26,0,0,1,98.47,118.31ZM72.09,131a80.51,80.51,0,0,1-14-5.18c9.5-.43,18.58-.44,28.1,0A81.06,81.06,0,0,1,72.09,131Zm48-38.74a271.63,271.63,0,0,0-95.92,0,52.74,52.74,0,0,1-3-7.45l-.17-72.51h102l.17,72.51A52.17,52.17,0,0,1,120,92.23Z"/></svg>