<svg id="Layer_1" data-name="Layer 1" xmlns="http://www.w3.org/2000/svg" viewBox="0 0 144 144"><defs><style>.cls-1{fill:#003468;}.cls-2{fill:#004876;}.cls-3{fill:#888b8d;}</style></defs><title>GLR_icons</title><path class="cls-1" d="M71.55,144l-.45-.12c-25.84-6.8-41.21-21.6-49.56-32.83C12.48,98.87,9.59,88.41,9.47,88l-.06-.22L9.2.42H133.48l.21,87.32-.06.23c-.12.44-3,10.9-12.08,23.08-8.34,11.23-23.71,26-49.56,32.83ZM12.91,87.26a75.52,75.52,0,0,0,11.54,21.82c8,10.67,22.58,24.72,47.1,31.29,24.52-6.57,39.14-20.62,47.1-31.29a75.12,75.12,0,0,0,11.53-21.82L130,3.93H12.71Z"/><path class="cls-2" d="M71.55,144l-.45-.12c-25.84-6.8-41.21-21.6-49.56-32.83C12.48,98.87,9.59,88.41,9.47,88l-.06-.22L9.2.42H133.48l.21,87.32-.06.23c-.12.44-3,10.9-12.08,23.08-8.34,11.23-23.71,26-49.56,32.83ZM12.91,87.26a75.52,75.52,0,0,0,11.54,21.82c8,10.67,22.58,24.72,47.1,31.29,24.52-6.57,39.14-20.62,47.1-31.29a75.12,75.12,0,0,0,11.53-21.82L130,3.93H12.71Z"/><path class="cls-3" d="M112.93,53.22h0L98.62,22.69A1.82,1.82,0,0,0,97,21.64H72.85V17.88H69.21v3.76H45.11a1.82,1.82,0,0,0-1.64,1.05L29.06,53.22h0a1.77,1.77,0,0,0-.17.77c0,7.81,7,13.69,16.18,13.69S61.25,61.8,61.25,54a1.78,1.78,0,0,0-.18-.77h0L48,25.28H69.21V81.62h3.64V25.28H94.1L80.92,53.22h0a1.65,1.65,0,0,0-.18.77c0,7.81,7,13.69,16.18,13.69S113.11,61.8,113.11,54A1.78,1.78,0,0,0,112.93,53.22ZM45.11,27.74,56.56,52.17h-23Zm0,36.3c-6.37,0-11.34-3.43-12.35-8.23h24.7C56.41,60.61,51.44,64,45.07,64Zm63.35-11.87h-23L97,27.74ZM96.93,64c-6.37,0-11.34-3.43-12.35-8.23h24.7C108.27,60.61,103.3,64,96.93,64Z"/><path class="cls-2" d="M126.46,8.57H16.24l.19,77.17V86l.06.21c.1.39,2.67,9.67,10.7,20.47,7.39,9.94,21,23.06,43.91,29.09l.44.11.43-.11c22.9-6,36.52-19.15,43.91-29.09,8-10.8,10.6-20.08,10.7-20.47l.06-.22ZM24.57,96.24a271.68,271.68,0,0,1,93.9,0c-.84,1.5-1.8,3.11-2.9,4.78a271.82,271.82,0,0,0-88.14,0C26.34,99.33,25.39,97.74,24.57,96.24Zm5,7.89a267.59,267.59,0,0,1,83.79,0c-1.12,1.53-2.35,3.08-3.71,4.65a277.33,277.33,0,0,0-76.35,0C32.11,107.4,31,106,30,104.72Zm6.57,7.77a273.69,273.69,0,0,1,70.68,0c-1.47,1.52-3.06,3-4.78,4.51a280.38,280.38,0,0,0-61.09,0C39.23,114.91,37.63,113.4,36.17,111.9Zm62.1,7.57a74.6,74.6,0,0,1-6.65,4.44,318.43,318.43,0,0,0-40.16,0,75,75,0,0,1-6.67-4.45A274.61,274.61,0,0,1,98.27,119.47ZM71.54,132.3a81.39,81.39,0,0,1-14.23-5.25c9.63-.44,18.83-.44,28.48,0A82,82,0,0,1,71.54,132.3ZM120.13,93a275.18,275.18,0,0,0-97.22,0,54.35,54.35,0,0,1-3.05-7.55L19.68,12H123l.17,73.49A51.76,51.76,0,0,1,120.13,93Z"/></svg>