<svg id="Layer_1" data-name="Layer 1" xmlns="http://www.w3.org/2000/svg" viewBox="0 0 144 144"><defs><style>.cls-1{fill:#888b8d;}.cls-2{fill:#004876;}.cls-3{fill:#003468;}</style></defs><title>GLR_icons</title><path class="cls-1" d="M1.52,119.29v1.9h3v1h-3v2.71H.41v-6.6H4.85v1Z"/><path class="cls-1" d="M14.37,121.59a3.38,3.38,0,0,1-3.5,3.35,3.34,3.34,0,1,1,0-6.68A3.36,3.36,0,0,1,14.37,121.59Zm-5.87,0a2.37,2.37,0,0,0,2.38,2.35,2.34,2.34,0,1,0-2.38-2.35Z"/><path class="cls-1" d="M20.62,122.89H18.75v2H17.64v-6.6h2.68c1.69,0,2.66.82,2.66,2.25a2.13,2.13,0,0,1-1.37,2.15l1.48,2.2H21.83Zm-.3-1c1,0,1.6-.43,1.6-1.33s-.58-1.28-1.6-1.28H18.75v2.61Z"/><path class="cls-1" d="M35,123.88v1h-4v-6.6h1.11v5.59Z"/><path class="cls-1" d="M39.16,123.4l-.64,1.49H37.36l2.92-6.6h1.14l2.89,6.6H43.12l-.63-1.49Zm1.66-3.92-1.25,2.93h2.49Z"/><path class="cls-1" d="M52.45,124.89l-1.56-5.15-1.59,5.15H48.15L46,118.29h1.2l1.6,5.37,1.6-5.36h1.09l1.61,5.37,1.59-5.37h1.16l-2.21,6.6Z"/><path class="cls-1" d="M63.14,118.92l-.46,1a4,4,0,0,0-1.94-.61c-.65,0-1.07.24-1.07.69,0,1.44,3.56.67,3.55,3,0,1.19-1,1.91-2.49,1.91a4,4,0,0,1-2.7-1.05l.48-1a3.5,3.5,0,0,0,2.24,1c.77,0,1.24-.29,1.24-.8,0-1.47-3.57-.65-3.57-3,0-1.13,1-1.84,2.41-1.84A4.25,4.25,0,0,1,63.14,118.92Z"/><path class="cls-1" d="M72.22,122.16a2.88,2.88,0,0,1-5.75,0v-3.87h1.11v3.87a1.65,1.65,0,0,0,1.78,1.78,1.62,1.62,0,0,0,1.74-1.78v-3.87h1.12Z"/><path class="cls-1" d="M75.89,124.89v-6.6H77v6.6Z"/><path class="cls-1" d="M83.23,119.29v5.6H82.12v-5.6H80v-1h5.3v1Z"/><path class="cls-1" d="M95.85,122.89H94v2H92.87v-6.6h2.68c1.69,0,2.66.82,2.66,2.25a2.13,2.13,0,0,1-1.37,2.15l1.48,2.2H97.06Zm-.3-1c1,0,1.6-.43,1.6-1.33s-.58-1.28-1.6-1.28H94v2.61Z"/><path class="cls-1" d="M102.88,119.29v1.78h3.23v1h-3.23v1.82h3.72v1h-4.83v-6.6h4.72v1Z"/><path class="cls-1" d="M111.15,119.29v1.9h3v1h-3v2.71H110v-6.6h4.43v1Z"/><path class="cls-1" d="M124,121.59a3.51,3.51,0,1,1-3.51-3.33A3.38,3.38,0,0,1,124,121.59Zm-5.87,0a2.36,2.36,0,0,0,4.72,0,2.36,2.36,0,0,0-4.72,0Z"/><path class="cls-1" d="M130.24,122.89h-1.86v2h-1.12v-6.6h2.68c1.69,0,2.66.82,2.66,2.25a2.13,2.13,0,0,1-1.36,2.15l1.48,2.2h-1.27Zm-.3-1c1,0,1.61-.43,1.61-1.33s-.59-1.28-1.61-1.28h-1.56v2.61Z"/><path class="cls-1" d="M142.12,124.89V120L140,124.21h-.72L137.21,120v4.93h-1.05v-6.6h1.32l2.18,4.39,2.18-4.39h1.31v6.6Z"/><path class="cls-2" d="M9.18,98.17A7.24,7.24,0,0,1,14,100.08L15.61,98a10,10,0,0,0-6.43-2.34c-5.07,0-9,3.65-9,8.44A8.53,8.53,0,0,0,9,112.58a11.37,11.37,0,0,0,6.51-2.17v-6.17h0v0H9.4v2.51h3.65v2.17a7.73,7.73,0,0,1-3.84,1.15,5.94,5.94,0,1,1,0-11.88Z"/><polygon class="cls-2" points="21.42 105.31 29.6 105.31 29.6 102.78 21.42 102.78 21.42 98.26 30.55 98.26 30.55 95.73 18.6 95.73 18.6 112.46 30.84 112.46 30.84 109.93 21.42 109.93 21.42 105.31"/><path class="cls-2" d="M42.29,95.66c-5,0-8.87,3.63-8.87,8.44a8.56,8.56,0,0,0,8.87,8.48,8.56,8.56,0,0,0,8.87-8.48C51.16,99.31,47.29,95.66,42.29,95.66Zm0,14.39a5.93,5.93,0,1,1,0-11.86,5.93,5.93,0,1,1,0,11.86Z"/><path class="cls-2" d="M67.75,101.44c0-3.63-2.46-5.71-6.74-5.71H54.22v16.73H57v-5h4a6.27,6.27,0,0,0,.76,0l3.06,5.07H68l-3.76-5.59A5.37,5.37,0,0,0,67.75,101.44ZM61,104.88H57V98.26h4c2.58,0,4.06,1,4.06,3.25S63.59,104.88,61,104.88Z"/><path class="cls-2" d="M79.13,98.17A7.28,7.28,0,0,1,84,100.08L85.56,98a10,10,0,0,0-6.43-2.34c-5.07,0-9,3.65-9,8.44a8.53,8.53,0,0,0,8.8,8.48,11.36,11.36,0,0,0,6.5-2.17v-6.17h0v0H79.36v2.51H83v2.17a7.8,7.8,0,0,1-3.85,1.15,5.94,5.94,0,1,1,0-11.88Z"/><rect class="cls-2" x="89.02" y="95.73" width="2.82" height="16.74"/><path class="cls-2" d="M101.5,95.73l-7.39,16.73h2.94l1.6-3.77h8.44l1.61,3.77h3l-7.32-16.73Zm-1.79,10.45,3.15-7.44,3.16,7.44Z"/><polygon class="cls-2" points="125.24 107.75 116.27 95.73 113.5 95.73 113.5 112.46 116.32 112.46 116.32 100.46 125.24 112.46 128.01 112.46 128.01 95.73 125.24 95.73 125.24 107.75"/><path class="cls-2" d="M134.56,100c0-1.13,1.08-1.75,2.72-1.75a10,10,0,0,1,4.91,1.56l1.17-2.49a10.89,10.89,0,0,0-5.86-1.72c-3.63,0-6.1,1.79-6.1,4.66,0,6,9,3.87,9,7.6,0,1.29-1.17,2-3.13,2a8.86,8.86,0,0,1-5.67-2.43l-1.22,2.43a10.29,10.29,0,0,0,6.84,2.66c3.68,0,6.31-1.84,6.31-4.83C143.6,101.7,134.56,103.66,134.56,100Z"/><path class="cls-3" d="M72.31,86.84l-.21-.06a41.85,41.85,0,0,1-23.39-15.5A35.65,35.65,0,0,1,43,60.39l0-.11-.1-41.22h58.67l.1,41.22,0,.11a36.21,36.21,0,0,1-5.7,10.89,41.92,41.92,0,0,1-23.4,15.5ZM44.63,60.05a35.56,35.56,0,0,0,5.45,10.3A40.18,40.18,0,0,0,72.31,85.12,40.21,40.21,0,0,0,94.55,70.35,35.43,35.43,0,0,0,100,60.05L99.9,20.71H44.54Z"/><path class="cls-2" d="M72.31,86.84l-.21-.06a41.85,41.85,0,0,1-23.39-15.5A35.65,35.65,0,0,1,43,60.39l0-.11-.1-41.22h58.67l.1,41.22,0,.11a36.21,36.21,0,0,1-5.7,10.89,41.92,41.92,0,0,1-23.4,15.5ZM44.63,60.05a35.56,35.56,0,0,0,5.45,10.3A40.18,40.18,0,0,0,72.31,85.12,40.21,40.21,0,0,0,94.55,70.35,35.43,35.43,0,0,0,100,60.05L99.9,20.71H44.54Z"/><path class="cls-1" d="M91.85,44h0L85.09,29.57a.85.85,0,0,0-.77-.49H72.93V27.3H71.21v1.78H59.83a.85.85,0,0,0-.77.49L52.26,44h0a.78.78,0,0,0-.09.37c0,3.68,3.29,6.46,7.64,6.46s7.64-2.78,7.64-6.46a.91.91,0,0,0-.08-.37h0L61.19,30.8h10V57.39h1.72V30.8H83L76.74,44h0a.91.91,0,0,0-.08.37c0,3.68,3.28,6.46,7.63,6.46s7.64-2.78,7.64-6.46A.91.91,0,0,0,91.85,44Zm-32-12,5.41,11.53H54.39Zm0,17.13c-3,0-5.35-1.62-5.83-3.88H65.64C65.17,47.47,62.82,49.09,59.81,49.09Zm29.91-5.6H78.87L84.31,32Zm-5.43,5.6c-3,0-5.35-1.62-5.83-3.88H90.12C89.65,47.47,87.3,49.09,84.29,49.09Z"/><path class="cls-2" d="M98.23,22.9h-52l.09,36.43v.11l0,.1a31.68,31.68,0,0,0,5,9.67A37.18,37.18,0,0,0,72.1,82.94l.21,0,.2,0A37.18,37.18,0,0,0,93.24,69.21a31.68,31.68,0,0,0,5.05-9.67l0-.1ZM50.13,64.29a128.41,128.41,0,0,1,44.33,0c-.39.71-.85,1.47-1.37,2.26a128.25,128.25,0,0,0-41.61,0Q50.72,65.35,50.13,64.29ZM52.51,68a126.18,126.18,0,0,1,39.56,0c-.53.72-1.12,1.46-1.76,2.2a131,131,0,0,0-36,0c-.58-.66-1.09-1.31-1.56-1.92Zm3.1,3.67a129,129,0,0,1,33.37,0c-.7.72-1.45,1.43-2.26,2.13a132.42,132.42,0,0,0-28.84,0C57.06,73.11,56.3,72.39,55.61,71.69Zm29.32,3.57a35.66,35.66,0,0,1-3.14,2.09,151.83,151.83,0,0,0-19,0,36.66,36.66,0,0,1-3.15-2.1A129.89,129.89,0,0,1,84.93,75.26Zm-12.62,6a38.54,38.54,0,0,1-6.72-2.47c4.55-.21,8.89-.21,13.45,0A38.75,38.75,0,0,1,72.31,81.31ZM95.25,62.78a130.11,130.11,0,0,0-45.9,0,25.83,25.83,0,0,1-1.44-3.56l-.08-34.7H96.62l.08,34.7A25.11,25.11,0,0,1,95.25,62.78Z"/></svg>