<svg id="Layer_1" data-name="Layer 1" xmlns="http://www.w3.org/2000/svg" viewBox="0 0 144 144"><defs><style>.cls-1{fill:#498cca;}</style></defs><title>GLR_icons</title><path class="cls-1" d="M36.16,26H9.28a9,9,0,0,0-9,9v80.65a9,9,0,0,0,9,9H134.72a9,9,0,0,0,9-9V34.94a9,9,0,0,0-9-9H36.16ZM70.68,86a2.23,2.23,0,0,0,1.32.44A2.26,2.26,0,0,0,73.33,86L89.87,73.9l41.69,41.69H12.45L54.13,73.9ZM91.42,26H45.12m0,9h89.6v.51L72,81.45l-62.72-46v-.51ZM134.72,41v71.41L93.53,71.22ZM50.48,71.22l-41.2,41.2V41Z"/></svg>