<svg id="Layer_1" data-name="Layer 1" xmlns="http://www.w3.org/2000/svg" viewBox="0 0 144 144"><defs><style>.cls-1{fill:#004876;}.cls-2{fill:#888b8d;}</style></defs><title>GLR_icons</title><path class="cls-1" d="M37.5,27.63a15.49,15.49,0,0,1-2.25-.17l-1.58-.23-.28-1.58a15.77,15.77,0,0,1,4.16-13.57h0A15.48,15.48,0,0,1,50.92,7.54l1.59.23.27,1.58a15.74,15.74,0,0,1-4.16,13.57A15.49,15.49,0,0,1,37.5,27.63ZM48.58,11.79a11.09,11.09,0,0,0-7.85,3.37h0a11.25,11.25,0,0,0-3.14,8,11.06,11.06,0,0,0,7.86-3.36A11.25,11.25,0,0,0,48.58,11.79Z"/><path class="cls-1" d="M23.37,44,22,43.2a15.28,15.28,0,0,1-7.37-11.69h0a15.34,15.34,0,0,1,5.1-12.86l1.21-1.07,1.39.83A15.26,15.26,0,0,1,24.58,43ZM19,31.1a10.93,10.93,0,0,0,3.83,7.31,10.82,10.82,0,0,0-1.4-15.21A11,11,0,0,0,19,31.1Z"/><path class="cls-1" d="M17.12,67.9l-1.6-.16a15.13,15.13,0,0,1-11.6-7.46h0a15.37,15.37,0,0,1-.77-13.83L3.79,45l1.6.16A15.14,15.14,0,0,1,17,52.6a15.39,15.39,0,0,1,.77,13.83ZM7.74,58.06a10.75,10.75,0,0,0,6.53,5,10.9,10.9,0,0,0-1.11-8.22,10.77,10.77,0,0,0-6.52-5,10.94,10.94,0,0,0,1.1,8.22Z"/><path class="cls-1" d="M14.9,93.61a15.06,15.06,0,0,1-8.61-2.7h0A15.34,15.34,0,0,1-.21,78.7l0-1.59,1.51-.54A15.1,15.1,0,0,1,14.91,78.4a15.33,15.33,0,0,1,6.51,12.21l0,1.59-1.5.54A15.15,15.15,0,0,1,14.9,93.61ZM8.82,87.28a10.62,10.62,0,0,0,8,1.73,10.88,10.88,0,0,0-4.45-7,10.59,10.59,0,0,0-8-1.73,10.81,10.81,0,0,0,4.44,7Z"/><path class="cls-1" d="M23.81,117.88a15.3,15.3,0,0,1-2.52-.21h0a15.22,15.22,0,0,1-11-8.31l-.7-1.43,1.13-1.11A15.05,15.05,0,0,1,34.87,111l.69,1.42-1.13,1.12A15.13,15.13,0,0,1,23.81,117.88ZM22,113.31a10.65,10.65,0,0,0,8-1.86,10.59,10.59,0,0,0-14.93-2.57A10.75,10.75,0,0,0,22,113.31Z"/><path class="cls-1" d="M42.14,136.06a15.13,15.13,0,0,1-9.52-3.37l-1.23-1,.55-1.49a15.06,15.06,0,0,1,23.64-6.52l1.24,1-.56,1.49a15.23,15.23,0,0,1-10.15,9.36A14.94,14.94,0,0,1,42.14,136.06Zm-5.34-5.85a10.64,10.64,0,0,0,8.13,1h0a10.74,10.74,0,0,0,6.48-5.1,10.65,10.65,0,0,0-8.13-1A10.78,10.78,0,0,0,36.8,130.21Z"/><path class="cls-1" d="M63.5,126.47A58.92,58.92,0,0,1,35.3,24.29l2.92,3.33a54.49,54.49,0,0,0,26.05,94.5Z"/><path class="cls-1" d="M105.73,27.63a15.49,15.49,0,0,1-11.12-4.72A15.72,15.72,0,0,1,90.46,9.35l.27-1.58,1.58-.23a15.48,15.48,0,0,1,13.37,4.54,15.74,15.74,0,0,1,4.16,13.57l-.27,1.58-1.59.23A15.49,15.49,0,0,1,105.73,27.63ZM94.65,11.79a11.27,11.27,0,0,0,3.14,8.05,11.09,11.09,0,0,0,7.85,3.37,11.27,11.27,0,0,0-3.14-8h0A11.07,11.07,0,0,0,94.65,11.79Z"/><path class="cls-1" d="M119.86,44,118.66,43a15.25,15.25,0,0,1,2.27-24.55l1.38-.83,1.21,1.07a15.35,15.35,0,0,1,5.11,12.86h0a15.32,15.32,0,0,1-7.38,11.7Zm1.93-20.83a10.85,10.85,0,0,0-1.4,15.21,10.85,10.85,0,0,0,1.4-15.21Z"/><path class="cls-1" d="M126.12,67.9l-.64-1.47a15.37,15.37,0,0,1,.77-13.83,15.13,15.13,0,0,1,11.6-7.46l1.6-.16.64,1.47a15.4,15.4,0,0,1-.77,13.83h0a15.14,15.14,0,0,1-11.6,7.46ZM136.6,49.84a10.79,10.79,0,0,0-6.53,5A10.94,10.94,0,0,0,129,63a10.73,10.73,0,0,0,6.52-5h0A11,11,0,0,0,136.6,49.84Z"/><path class="cls-1" d="M128.34,93.61a15.15,15.15,0,0,1-5-.87l-1.5-.54,0-1.59a15.35,15.35,0,0,1,6.5-12.21A15.07,15.07,0,0,1,142,76.58l1.51.53,0,1.6a15.31,15.31,0,0,1-6.51,12.2h0A15,15,0,0,1,128.34,93.61ZM126.41,89a10.49,10.49,0,0,0,8-1.74h0a10.78,10.78,0,0,0,4.44-7,10.65,10.65,0,0,0-8,1.73A10.83,10.83,0,0,0,126.41,89Z"/><path class="cls-1" d="M119.42,117.88a15.13,15.13,0,0,1-10.62-4.37l-1.13-1.12.7-1.42a15.05,15.05,0,0,1,24.17-4.15l1.13,1.12-.7,1.43a15.22,15.22,0,0,1-11,8.3h0A15.3,15.3,0,0,1,119.42,117.88Zm-6.22-6.43a10.62,10.62,0,0,0,8,1.86h0a10.75,10.75,0,0,0,6.95-4.43,10.6,10.6,0,0,0-14.94,2.57Z"/><path class="cls-1" d="M101.1,136.06a14.89,14.89,0,0,1-4-.53h0A15.23,15.23,0,0,1,87,126.17l-.55-1.49,1.23-1a15.06,15.06,0,0,1,23.64,6.52l.56,1.49-1.24,1A15.1,15.1,0,0,1,101.1,136.06Zm-9.27-9.9a10.69,10.69,0,0,0,6.47,5.1h0a10.65,10.65,0,0,0,8.13-1,10.78,10.78,0,0,0-6.48-5.1A10.64,10.64,0,0,0,91.83,126.16Z"/><path class="cls-1" d="M79.73,126.48,79,122.12A54.49,54.49,0,0,0,105,27.62l2.92-3.32a58.92,58.92,0,0,1-28.2,102.18Z"/><path class="cls-2" d="M51.9,109.17V92.39H41.05V43.91h64.44V92.39H69ZM45.13,88.31H56V99.43L67.31,88.31h34.1V48H45.13Z"/><rect class="cls-2" x="56.48" y="59.87" width="33.59" height="4.08"/><rect class="cls-2" x="56.48" y="71.46" width="33.59" height="4.08"/></svg>