<svg id="Layer_1" data-name="Layer 1" xmlns="http://www.w3.org/2000/svg" viewBox="0 0 144 144"><defs><style>.cls-1{fill:#888b8d;}.cls-2{fill:#004876;}</style></defs><title>GLR_icons</title><rect class="cls-1" x="99.03" y="12.68" width="4.94" height="37.7" transform="matrix(0.31, -0.95, 0.95, 0.31, 40.23, 118.38)"/><rect class="cls-1" x="40.61" y="-5.79" width="4.94" height="36.79" transform="translate(17.82 49.71) rotate(-72.05)"/><path class="cls-2" d="M80.55,115.81H64.32v-80a14.52,14.52,0,1,1,16.23,0Zm-11.29-4.94h6.35V32.92l1.31-.7a9.57,9.57,0,1,0-9,0l1.3.7Z"/><path class="cls-2" d="M98.34,117.37H93.4c0-1-.56-1.56-.85-1.56H52.32c-.29,0-.84.61-.84,1.56H46.54c0-3.58,2.59-6.5,5.78-6.5H92.55C95.74,110.87,98.34,113.79,98.34,117.37Z"/><path class="cls-2" d="M105.35,137.79H39.53V121.38h65.82Zm-60.88-4.94h55.94v-6.53H44.47Z"/><path class="cls-2" d="M105.35,137.79H39.53V121.38h65.82Zm-60.88-4.94h55.94v-6.53H44.47Z"/><path class="cls-1" d="M39.58,51.42,26.22,14.34,12.87,51.42,8.22,49.74,23.9,6.22a2.46,2.46,0,0,1,2.32-1.63h0a2.46,2.46,0,0,1,2.33,1.63L44.23,49.74Z"/><path class="cls-1" d="M26.22,70.09A25,25,0,0,1,1.91,50.73a2.48,2.48,0,0,1,2.41-3H48.13a2.48,2.48,0,0,1,1.94.94,2.44,2.44,0,0,1,.46,2.1A25,25,0,0,1,26.22,70.09ZM7.69,52.63a20,20,0,0,0,37.07,0Z"/><path class="cls-1" d="M131.13,80.94,117.77,43.86,104.42,80.94l-4.65-1.68,15.68-43.52a2.47,2.47,0,0,1,2.33-1.64h0a2.47,2.47,0,0,1,2.32,1.64l15.68,43.52Z"/><path class="cls-1" d="M117.78,99.61A25,25,0,0,1,93.46,80.25a2.48,2.48,0,0,1,2.41-3h43.81a2.48,2.48,0,0,1,1.94.94,2.44,2.44,0,0,1,.46,2.1A25,25,0,0,1,117.78,99.61ZM99.24,82.15a20,20,0,0,0,37.07,0Z"/><rect class="cls-2" x="69.97" y="21.12" width="4.94" height="4.96"/></svg>