<svg id="Layer_1" data-name="Layer 1" xmlns="http://www.w3.org/2000/svg" viewBox="0 0 144 144"><defs><style>.cls-1{fill:#888b8d;}.cls-2{fill:#004876;}</style></defs><title>GLR_icons</title><path class="cls-1" d="M113.51,136.65l-15.25-13,2.87-3.36,12.13,10.38,10.94-11.06-11-13.15.92-1.38a51.42,51.42,0,0,0,7.37-16.83l.37-1.56,17.44-1.47V69.52l-17-1.43L122,66.44a51.48,51.48,0,0,0-6.56-17.18l-.81-1.35,11.3-13.5L115,23.35,102,34.48l-1.4-1a50,50,0,0,0-16.64-7.44L82.4,25.7,80.94,8.07H65.5L64.08,25.24l-1.64.32a50.09,50.09,0,0,0-17,6.62L44.09,33,30.74,21.61l-10.94,11,11,13.16-.93,1.38A51.42,51.42,0,0,0,22.52,64l-.36,1.55L4.71,67.05V82.72l17,1.43L22,85.8A51.26,51.26,0,0,0,28.57,103l.82,1.35L18.08,117.83,29,128.89l11.72-10,2.87,3.36L28.77,134.91,12.12,118.08,24,103.89a55.63,55.63,0,0,1-6-15.62L.29,86.77V63l18.32-1.55a56,56,0,0,1,6.7-15.32L13.84,32.42,30.49,15.58l14,12a54.51,54.51,0,0,1,15.43-6L61.44,3.66H85l1.53,18.53a54.12,54.12,0,0,1,15.13,6.75l13.57-11.61,16.65,16.83L120,48.34A55.74,55.74,0,0,1,126,64l17.72,1.49V89.24l-18.33,1.54a55.61,55.61,0,0,1-6.7,15.33l11.48,13.71Z"/><path class="cls-2" d="M90.82,118l-4.76-.34c.35-4.87,1.48-8.62,3.35-11.14C101.5,90.77,101.87,76.12,101.87,76a29.87,29.87,0,1,0-59.74,0c0,.14.36,14.8,12.43,30.5,1.89,2.55,3,6.3,3.33,11.18l-4.77.32c-.25-3.84-1.1-6.9-2.37-8.62-13-17-13.4-33.22-13.4-33.38a34.65,34.65,0,1,1,69.3,0c0,.16-.37,16.41-13.42,33.41C92,111.09,91.1,114.15,90.82,118Z"/><rect class="cls-2" x="62.72" y="81.79" width="4.78" height="36.03" transform="translate(-10.01 7.29) rotate(-5.96)"/><rect class="cls-2" x="60.88" y="97.42" width="36.04" height="4.78" transform="translate(-28.56 167.92) rotate(-84.04)"/><rect class="cls-2" x="51.03" y="115.81" width="41.95" height="4.78"/><rect class="cls-2" x="51.03" y="125.57" width="41.95" height="4.78"/><rect class="cls-2" x="58.28" y="135.34" width="27.43" height="4.78"/></svg>