<svg id="Layer_1" data-name="Layer 1" xmlns="http://www.w3.org/2000/svg" viewBox="0 0 144 144"><defs><style>.cls-1{fill:#004876;}.cls-2{fill:#498cca;}</style></defs><title>GLR_icons</title><path class="cls-1" d="M19.21,120.77a2.6,2.6,0,0,1-2.61-2.57V16.72a1.87,1.87,0,0,1,0-.34A15.74,15.74,0,0,1,32.36,1.44h89.72A2.56,2.56,0,0,1,124.65,4V104.48h-5.13V6.56H32.36A10.57,10.57,0,0,0,21.75,16.77c0,.08,0,.15,0,.22v89a15.8,15.8,0,0,1,10.63-4.08v5.13a10.54,10.54,0,0,0-10.63,10.42c0,.11,0,.23,0,.34l0,.24a2.58,2.58,0,0,1-2.56,2.72Z"/><path class="cls-1" d="M47.26,133H32.36a15.55,15.55,0,1,1,0-31.1H57.15v5.13H32.36a10.42,10.42,0,1,0,0,20.84h14.9Z"/><path class="cls-1" d="M122.08,133H110.86v-5.13h8.66V107.05H96.59v-5.13h25.49a2.57,2.57,0,0,1,2.57,2.56v26A2.57,2.57,0,0,1,122.08,133Z"/><rect class="cls-1" x="110.86" y="115.64" width="11.23" height="5.13"/><rect class="cls-1" x="28.81" y="5.25" width="5.13" height="98.43"/><path class="cls-2" d="M96.82,117.47H91.69V107a2.55,2.55,0,0,1,1-2.06,11.8,11.8,0,0,0,4.89-9.57v-33h5.13v33a16.83,16.83,0,0,1-5.94,12.87Z"/><path class="cls-2" d="M69.36,117.47H64.23v-6.18a41.08,41.08,0,0,1-5.45-2.84,2.61,2.61,0,0,1-.59-.51L42.29,89.33a2.53,2.53,0,0,1-.62-1.66V74.13a2.16,2.16,0,0,1,0-.36V63.61A2.56,2.56,0,0,1,44,61.06c.14,0,.23,0,3,0a11,11,0,0,1,6,1.76v-.39h5.13l0,23.28a2.57,2.57,0,0,1-5.13.11l-.11-2.67V71.85A5.78,5.78,0,0,0,47,66.15H46.8v7.64a1.61,1.61,0,0,1,0,.31V86.72l15,17.58A26.42,26.42,0,0,0,67.39,107a2.57,2.57,0,0,1,2,2.5Z"/><path class="cls-2" d="M104.24,142.25H99.11V120.62H58.67v21.63H53.54v-24.2a2.56,2.56,0,0,1,2.56-2.56h45.58a2.56,2.56,0,0,1,2.56,2.56Z"/><path class="cls-2" d="M102.76,62.58H97.63V43a2.94,2.94,0,0,0-5.88,0V62.58H86.62V43a8.07,8.07,0,0,1,16.14,0Z"/><path class="cls-2" d="M91.56,62.58H86.43V31.2a2.94,2.94,0,0,0-5.88,0V62.58H75.42V31.2a8.07,8.07,0,0,1,16.14,0Z"/><path class="cls-2" d="M80.36,62.58H75.23V25.65a2.94,2.94,0,0,0-5.88,0V62.58H64.23V25.65a8.07,8.07,0,0,1,16.13,0Z"/><path class="cls-2" d="M69.16,62.58H64V35a2.94,2.94,0,0,0-5.88,0V62.58H53V35a8.07,8.07,0,0,1,16.13,0Z"/></svg>