<svg id="Layer_1" data-name="Layer 1" xmlns="http://www.w3.org/2000/svg" viewBox="0 0 144 144"><defs><style>.cls-1,.cls-2{fill:none;stroke-width:4.9px;}.cls-1{stroke:#004876;}.cls-2{stroke:#888b8d;}</style></defs><title>GLR_icons</title><path class="cls-1" d="M13.82,53.82V23.39L73,7.47,132.24,23.4V76.47c0,41.06-31.65,55-55.45,61.9L73,139.47l-3.76-1.1c-23.8-6.91-55.45-20.84-55.45-61.9"/><path class="cls-1" d="M26.41,53.82V33L73,20.44,119.65,33V76.47c0,25.53-13.87,40.45-46.39,49.89l-.23.07-.23-.07C40.28,116.92,26.41,102,26.41,76.47"/><path class="cls-2" d="M95.23,99.85a2.83,2.83,0,0,1-2.83,2.83H55.06a2.84,2.84,0,0,1-2.84-2.82V90.93a2.84,2.84,0,0,1,2.84-2.83H92.4a2.82,2.82,0,0,1,2.83,2.81Z"/><path class="cls-2" d="M95.23,51.44a2.82,2.82,0,0,1-2.83,2.82H55.06a2.83,2.83,0,0,1-2.84-2.82V42.51a2.83,2.83,0,0,1,2.84-2.82H92.4a2.83,2.83,0,0,1,2.83,2.82Z"/><line class="cls-2" x1="58.67" y1="88.83" x2="58.67" y2="53.54"/><line class="cls-2" x1="88.78" y1="88.83" x2="88.78" y2="53.54"/><polyline class="cls-2" points="11.42 76.8 58.67 76.8 58.67 65.57 11.42 65.57"/><line class="cls-2" x1="73.1" y1="78.6" x2="73.1" y2="63.77"/></svg>