<svg id="Layer_1" data-name="Layer 1" xmlns="http://www.w3.org/2000/svg" viewBox="0 0 144 144"><defs><style>.cls-1{fill:#888b8d;}.cls-2{fill:#004876;}</style></defs><title>GLR_icons</title><path class="cls-1" d="M142.19,26.5H127.87V22.13h9.94V13.07a8.2,8.2,0,0,0-8.24-8.13V.56a12.58,12.58,0,0,1,12.62,12.51Z"/><path class="cls-1" d="M110,142.71H12.77l0-4.37h97a8.19,8.19,0,0,0,7.2-8.07l-.08-3.91H117V13.07a12.37,12.37,0,0,1,3-8H31.37a8.16,8.16,0,0,0-7.16,8.06V116.39H19.84V13.07A12.53,12.53,0,0,1,31,.65h5.88c58.05,0,88.82,0,91.48,0L128.6,5a8.15,8.15,0,0,0-7.28,8.07V130.74h0a12.58,12.58,0,0,1-11.18,12Z"/><path class="cls-1" d="M12,142.71h-.25A12.54,12.54,0,0,1,.57,130.27v-7.36H102.06v7.36a8.18,8.18,0,0,0,7.28,8.09l-.26,4.35c-2.65,0-33.43,0-91.47,0Zm-7-15.43v3a8.17,8.17,0,0,0,7.17,8.07h88.54a12.38,12.38,0,0,1-3-8.06v-3Z"/><path class="cls-1" d="M142.19,25.81h-4.38V13.07a8.25,8.25,0,0,0-16.49,0H117a12.62,12.62,0,0,1,25.24,0Z"/><path class="cls-1" d="M109.69,142.71c-6.28,0-12-5.92-12-12.44v-8.36h4.38v8.36c0,4.15,3.71,8.07,7.63,8.07Z"/><polygon class="cls-2" points="80.98 116.51 80.98 96.7 85.35 96.7 85.35 108.23 90.51 104.7 95.67 108.23 95.67 96.7 100.05 96.7 100.05 116.51 90.51 110 80.98 116.51"/><path class="cls-2" d="M90.51,102a12.24,12.24,0,1,1,12.35-12.25A12.31,12.31,0,0,1,90.51,102Zm0-20.11a7.87,7.87,0,1,0,8,7.86A7.93,7.93,0,0,0,90.51,81.93Z"/><rect class="cls-2" x="88.33" y="87.22" width="4.37" height="5.77"/><rect class="cls-2" x="49.72" y="21.47" width="37.53" height="4.37"/><rect class="cls-2" x="36.88" y="35.96" width="63.2" height="4.37"/><rect class="cls-2" x="36.88" y="50.22" width="63.2" height="4.37"/><rect class="cls-2" x="36.88" y="64.48" width="63.2" height="4.37"/><rect class="cls-2" x="36.88" y="78.73" width="37.57" height="4.37"/><rect class="cls-2" x="36.88" y="92.99" width="24.95" height="4.37"/></svg>