<svg id="Layer_1" data-name="Layer 1" xmlns="http://www.w3.org/2000/svg" viewBox="0 0 144 144"><defs><style>.cls-1{fill:#888b8d;}.cls-2{fill:#004876;}</style></defs><title>GLR_icons</title><rect class="cls-1" x="100.21" y="37.12" width="23.86" height="4.54"/><rect class="cls-1" x="21.89" y="37.12" width="32.85" height="4.54"/><path class="cls-2" d="M94.53,62.22a8,8,0,0,1-8-8V31.4h6.65a5.52,5.52,0,0,1,1.07,0h.24a8,8,0,0,1,8,8V54.24A8,8,0,0,1,94.53,62.22ZM91.12,36V54.24a3.41,3.41,0,1,0,6.82,0V39.39A3.43,3.43,0,0,0,94.53,36l-.54,0a1,1,0,0,0-.24,0l-.22,0H91.12Z"/><path class="cls-2" d="M83.16,62.22V57.68a3.43,3.43,0,0,0,3.41-3.44V35.92H79.75V46H75.2V31.37H91.12V54.24A8,8,0,0,1,83.16,62.22Z"/><path class="cls-2" d="M83.16,62.22a8,8,0,0,1-8-8V31.37H91.12V46H86.57V35.92H79.75V54.24a3.43,3.43,0,0,0,3.41,3.44Z"/><polygon class="cls-2" points="68.38 46 63.83 46 63.83 31.37 77.47 31.37 77.47 35.92 68.38 35.92 68.38 46"/><polygon class="cls-2" points="57.01 46.02 52.46 46.02 52.46 31.37 68.38 31.37 68.38 46 63.83 46 63.83 35.92 57.01 35.92 57.01 46.02"/><path class="cls-2" d="M61.29,120.85H56.75V85L45.66,71c-2.83-4-2.86-8-.11-12.72l7.37-11.77L56.77,49,49.44,60.68c-2.07,3.52-1.55,5.63-.11,7.69l12,15Z"/><path class="cls-2" d="M70.62,63.88h-9V59.33h9a4.69,4.69,0,0,0,4.58-5V50.47l-23.35,0V46l27.91-.05v8.44A9.23,9.23,0,0,1,70.62,63.88Z"/><path class="cls-2" d="M94.06,121.34H89.52V82.46l.41-.58c3.85-5.47,8-12.62,8-14.65V47.65h4.55V67.23c0,4.13-6,13.17-8.43,16.67Z"/><path class="cls-2" d="M81,79.32H76.4a14.87,14.87,0,0,0-14.81-14.9V59.88A19.42,19.42,0,0,1,81,79.32Z"/><path class="cls-1" d="M42,76.13,27.71,45.62h0l-4-8.37H22.36a2.24,2.24,0,0,0-2,1.29L2.59,76.13h0a2.17,2.17,0,0,0-.22,1c0,9.61,8.56,16.86,19.92,16.86s19.93-7.25,19.93-16.86a2.32,2.32,0,0,0-.22-1ZM22.35,44.76l14.1,30.08H8.16Zm-.05,44.7c-7.84,0-14-4.23-15.2-10.14H37.51C36.27,85.23,30.14,89.46,22.3,89.46Z"/><path class="cls-1" d="M104.37,76.13a2.17,2.17,0,0,0-.22,1c0,9.61,8.57,16.86,19.93,16.86S144,86.69,144,77.08a2.17,2.17,0,0,0-.22-1h0L126.05,38.54a2.24,2.24,0,0,0-2-1.29h-1.36l-4,8.37h0l-14.3,30.51Zm33.85-1.29H109.93L124,44.76Zm-29.35,4.48h30.41c-1.24,5.91-7.36,10.14-15.2,10.14S110.11,85.23,108.87,79.32Z"/></svg>