<svg id="Layer_1" data-name="Layer 1" xmlns="http://www.w3.org/2000/svg" viewBox="0 0 144 144"><defs><style>.cls-1{fill:#004876;}.cls-2{fill:#498cca;}</style></defs><title>GLR_icons</title><path class="cls-1" d="M142.33,26.85H127.89V22.11h9.69V13.3a8,8,0,0,0-8-7.9V.66A12.71,12.71,0,0,1,142.33,13.3Z"/><path class="cls-1" d="M110.13,142.47H13.38l0-4.74c2.65,0,33.27,0,91,0h5.47a8,8,0,0,0,7-7.83l-.07-4.09h.07V13.3a12.51,12.51,0,0,1,2.73-7.82H31.9A7.91,7.91,0,0,0,25,13.3V116.08H20.21V13.3A12.66,12.66,0,0,1,31.49.75l.27,0h5.6c57.75,0,88.36,0,91,0l.28,4.73a7.92,7.92,0,0,0-7.07,7.84V130.56h0a12.72,12.72,0,0,1-11.29,11.9Z"/><path class="cls-1" d="M12.59,142.47h-.27A12.67,12.67,0,0,1,1.05,129.9v-7.53H102.4v7.53a7.93,7.93,0,0,0,7.08,7.84l-.28,4.73H12.59Zm-6.8-15.35v2.78a7.94,7.94,0,0,0,6.94,7.83h87.66a12.53,12.53,0,0,1-2.73-7.82v-2.78Z"/><path class="cls-1" d="M142.33,26h-4.75V13.3a8,8,0,0,0-16,0h-4.75a12.76,12.76,0,0,1,25.51,0Z"/><path class="cls-1" d="M109.8,142.47c-6.35,0-12.14-6-12.14-12.57v-8.32h4.74v8.32c0,4,3.6,7.83,7.4,7.83Z"/><rect class="cls-2" x="37.37" y="70.7" width="67" height="4.75"/><rect class="cls-2" x="37.37" y="85.61" width="67" height="4.75"/><rect class="cls-2" x="37.37" y="100.72" width="39.83" height="4.75"/><path class="cls-2" d="M75,55.56l-6.17-23-6.26,23H53.87L43,22.33h9l6.5,24.45,6.36-24.45h8.26l6.51,24.45,6.41-24.45H94.7l-11,33.23Z"/></svg>